PathFileType   4   (X/Y/Z)																																																																																																																							
DataRate	CameraRate	NumFrames	NumMarkers	Units	OrigDataRate	OrigDataStartFrame	OrigNumFrames																																																																																																																
120	120	4	37	mm	120	16	125																																																																																																																
Frame#	Time	Sternum	R.Acromium	L.Acromium	Top.Head	R.ASIS	L.ASIS	V.Sacral	R.Thigh.Upper	R.Thigh.Front	R.Thigh.Rear	R.Knee.Lat	R.Knee.Med	R.Shank.Upper	R.Shank.Front	R.Shank.Rear	R.Ankle.Lat	R.Ankle.Med	R.Heel	R.Midfoot.Sup	R.Midfoot.Lat	R.Toe.Lat	R.Toe.Med	R.Toe.Tip	L.Thigh.Upper	L.Thigh.Front	L.Thigh.Rear	L.Knee.Lat	L.Knee.Med	L.Shank.Upper	L.Shank.Front	L.Shank.Rear	L.Ankle.Lat	L.Ankle.Med	L.Heel	L.Midfoot.Sup	L.Midfoot.Lat	L.Toe.Lat	L.Toe.Med	L.Toe.Tip																																																																															
 	 	X1	Y1	Z1	X2	Y2	Z2	X3	Y3	Z3	X4	Y4	Z4	X5	Y5	Z5	X6	Y6	Z6	X7	Y7	Z7	X8	Y8	Z8	X9	Y9	Z9	X10	Y10	Z10	X11	Y11	Z11	X12	Y12	Z12	X13	Y13	Z13	X14	Y14	Z14	X15	Y15	Z15	X16	Y16	Z16	X17	Y17	Z17	X18	Y18	Z18	X19	Y19	Z19	X20	Y20	Z20	X21	Y21	Z21	X22	Y22	Z22	X23	Y23	Z23	X24	Y24	Z24	X25	Y25	Z25	X26	Y26	Z26	X27	Y27	Z27	X28	Y28	Z28	X29	Y29	Z29	X30	Y30	Z30	X31	Y31	Z31	X32	Y32	Z32	X33	Y33	Z33	X34	Y34	Z34	X35	Y35	Z35	X36	Y36	Z36	X37	Y37	Z37							
																																																																																																																							
	16	0.25	202.4260111	-0.001002095	1257.061743	117.6444859	-161.9453511	1310.472903	120.3899677	165.1979949	1310.633002	184.9509157	-10.08809499	1548.717202	272.6426278	-117.7896216	868.5296932	277.6726598	119.399185	860.6750713	96.99324573	-5.611229398	886.4145518	312.0067116	-173.4115572	570.5689816	393.835959	-67.95180237	526.2022779	343.1200808	-162.9734513	439.9145342	331.3415519	-142.5943975	336.2472235	335.3228888	-8.355853302	318.1101959	261.3020777	-154.6508593	334.7868841	283.6092782	-93.81404015	244.9851818	198.5480587	-165.0122006	261.0265719	-47.50308463	-136.9768135	58.12193742	-29.43044459	-37.22329306	61.58924508	-113.4298287	-79.10633289	95.7922666	-6.866860021	-41.71858376	-13.11123216	-26.50360269	-155.3841374	-22.23958285	14.76631629	-165.0174344	-111.35011	26.98101419	-50.15543807	-104.3743399	68.71914502	-83.79364801	-153.613448	233.188244	178.8034865	556.2397284	322.2171393	95.03600439	514.9980666	228.8934527	161.7547942	435.4822745	207.4615976	144.5366564	290.262053	208.7726305	15.87918741	291.122232	208.3476834	162.4477689	265.8347428	260.1684521	100.5194763	212.3127425	191.2818201	174.5177999	216.809856	226.1549089	136.4325857	-132.6220532	229.5103459	34.31683281	-106.4120159	142.8965015	76.11439987	-150.2902805	325.4675308	48.15109198	-152.4509458	305.9994626	152.6198727	-151.9263331	372.3200128	163.716336	-178.3428476	390.3652332	55.50675189	-178.8505598	442.4840827	82.30973808	-179.3755699
	17	0.25833	211.2300694	-0.001002095	1257.551256	126.5282044	-161.9453511	1311.088654	129.2739218	165.1979949	1311.244664	194.1894702	-10.08809499	1549.232423	280.8878082	-117.7896216	868.9580333	285.909259	119.399185	861.0979227	105.2580636	-5.611229398	887.0347139	324.599737	-173.4115572	573.9016404	407.343071	-67.95180237	531.2639716	358.4513027	-162.9734513	443.9297286	348.8534353	-142.5943975	340.0378329	353.2149543	-8.355853302	321.9884571	279.066762	-154.6508593	336.5062552	304.2904475	-93.81404015	247.4797276	218.7513704	-165.0122006	260.7388209	-20.55239114	-136.9768135	49.91860004	-2.602428049	-37.22329306	53.97339538	-88.3940647	-79.10633289	84.06857338	23.62627596	-41.71858376	-19.21299139	4.484745523	-155.3841374	-29.33871417	50.28089138	-165.0174344	-116.2099136	62.12084508	-50.15543807	-108.615461	106.3349643	-83.79364801	-155.6438885	238.6320922	178.8034865	556.1603917	327.1634596	95.03600439	513.8612682	232.8993122	161.7547942	435.4626571	209.7393179	144.5366564	290.5080028	211.060503	15.87918741	291.3525056	210.4774962	162.4477689	266.0940598	261.7629173	100.5194763	212.058866	192.9244645	174.5177999	217.2414826	224.3174367	136.4325857	-132.5202546	227.9336129	34.31683281	-106.3449173	141.0068491	76.11439987	-149.9786812	323.5728801	48.15109198	-152.5269261	304.1059694	152.6198727	-151.9609853	370.3702899	163.716336	-178.5182339	388.4143918	55.50675189	-179.0642535	440.5320094	82.30973808	-179.6999068
	18	0.26667	220.0336222	-0.001002095	1258.016306	135.422021	-161.9453511	1311.696246	138.1679971	165.1979949	1311.847632	203.484166	-10.08809499	1549.725753	289.0890552	-117.7896216	869.4180865	294.1053947	119.399185	861.5547128	113.4711002	-5.611229398	887.6089478	336.7967561	-173.4115572	577.0953818	420.3524291	-67.95180237	536.0724658	373.1657393	-162.9734513	447.805307	365.5870589	-142.5943975	343.7466281	370.2982392	-8.355853302	325.7853477	296.2106727	-154.6508593	337.9996581	324.6437966	-93.81404015	249.9456157	238.6804354	-165.0122006	260.0963697	7.173211482	-136.9768135	40.74309048	24.96445451	-37.22329306	45.44566552	-62.43446005	-79.10633289	71.18464489	54.8893226	-41.71858376	-26.03041756	36.30986658	-155.3841374	-37.15391804	86.63451013	-165.0174344	-121.4825757	98.05641815	-50.15543807	-113.2728114	144.6949167	-83.79364801	-157.8980484	244.1162407	178.8034865	556.1155327	332.1476959	95.03600439	512.7856152	236.9746053	161.7547942	435.4929605	212.1237237	144.5366564	290.8185991	213.454679	15.87918741	291.6476184	212.681175	162.4477689	266.4128115	263.4099238	100.5194763	211.8546715	194.6282218	174.5177999	217.7427581	222.4337334	136.4325857	-132.3224431	226.3180732	34.31683281	-106.185555	139.069445	76.11439987	-149.5605706	321.6293205	48.15109198	-152.517101	302.1637242	152.6198727	-151.9076257	368.3684862	163.716336	-178.6130018	386.4113219	55.50675189	-179.199374	438.5273875	82.30973808	-179.9515819
	19	0.275	228.8355386	-0.001002095	1258.445673	144.3237564	-161.9453511	1312.282628	147.0700089	165.1979949	1312.428914	212.8277584	-10.08809499	1550.185346	297.2498232	-117.7896216	869.8923909	302.2641116	119.399185	862.0277091	121.6366187	-5.611229398	888.1290564	348.5996208	-173.4115572	580.1113544	432.8716914	-67.95180237	540.5810087	387.2623431	-162.9734513	451.4885715	381.5355996	-142.5943975	347.3115613	386.5654855	-8.355853302	329.4369127	312.7402257	-154.6508593	339.2269109	344.6414596	-93.81404015	252.369164	258.3432879	-165.0122006	259.1043566	35.71317461	-136.9768135	30.74654855	53.30402439	-37.22329306	36.15067144	-35.48171908	-79.10633289	57.32027278	86.9190233	-41.71858376	-33.41944623	68.96714865	-155.3841374	-45.52971647	123.7707921	-165.0174344	-127.0186907	134.7328504	-50.15543807	-118.2042996	183.7123818	-83.79364801	-160.2467405	249.636045	178.8034865	556.08983	337.1651645	95.03600439	511.7539291	241.1125599	161.7547942	435.5570208	214.6053614	144.5366564	291.1769475	215.9457297	15.87918741	291.9906598	214.9518603	162.4477689	266.7756052	265.1036491	100.5194763	211.6866347	196.3877201	174.5177999	218.2982299	220.5077277	136.4325857	-132.0402019	224.6669079	34.31683281	-105.9456385	137.0892753	76.11439987	-149.0523503	319.6419012	48.15109198	-152.4269599	300.1777518	152.6198727	-151.7729073	366.3211812	163.716336	-178.6298314	384.3626267	55.50675189	-179.2575226	436.476833	82.30973808	-180.1290814
